<svg width="201" height="66" viewBox="0 0 201 66" fill="none" xmlns="http://www.w3.org/2000/svg">
<path d="M13.4759 64.5472C16.9287 61.2139 41.2325 37.1686 42.1727 36.1556L42.5736 35.7236L40.0436 33.4326C38.6521 32.1726 36.9715 30.6255 36.309 29.9946L35.1043 28.8476L33.6735 30.2785L32.2426 31.7093L33.1891 32.5765C33.7096 33.0535 34.5363 33.8202 35.0262 34.2803L35.9168 35.1169L29.441 41.6022C25.8793 45.1691 22.872 48.066 22.7582 48.0398C22.5884 48.0007 12.0703 38.5592 9.21839 35.8858L8.41669 35.1343L10.1022 33.4909C12.5912 31.064 35.2638 8.73555 40.0024 4.04455L44.0879 0H54.1516C59.6867 0 64.2154 0.0468749 64.2154 0.104228C64.2154 0.193655 58.3805 5.98314 43.7451 20.4151L40.3958 23.7178L41.2612 24.5235C41.7371 24.9666 43.4427 26.4965 45.0513 27.9233L47.976 30.5174L48.8483 29.6452L49.7205 28.773L48.5868 27.7374C47.9632 27.1678 47.0929 26.3627 46.6527 25.9484L45.8524 25.195L50.5094 20.5628L55.1664 15.9306L55.832 16.5094C58.3697 18.7165 69.538 28.8276 69.538 28.9181C69.538 29.0552 59.6671 38.8463 46.4703 51.7992C41.0562 57.1132 35.5886 62.4817 34.3201 63.7292L32.0136 65.9973L21.9921 65.9987L11.9706 66L13.4759 64.5472ZM55.5218 50.2747C55.5218 50.1197 56.3948 49.3228 56.5645 49.3228C56.7301 49.3228 57.4734 50.0939 57.4734 50.2657C57.4734 50.3327 57.0343 50.3874 56.4976 50.3874C55.9609 50.3874 55.5218 50.3367 55.5218 50.2747ZM59.4237 49.3933C57.5725 47.7957 57.6721 47.9928 58.3589 47.2841C58.6908 46.9417 59.0325 46.6615 59.1182 46.6615C59.2412 46.6615 61.3507 48.4877 63.1445 50.147C63.3648 50.3508 63.1892 50.3874 61.99 50.3874H60.5757L59.4237 49.3933ZM62.8106 47.9538L60.0751 45.5274L62.6551 43.034C64.0741 41.6626 65.3971 40.3955 65.5951 40.2182C65.9494 39.9009 66.0302 39.9639 70.7229 44.2101C73.3453 46.583 75.9079 48.8959 76.4176 49.3499C76.9274 49.804 77.3445 50.2231 77.3445 50.2814C77.3445 50.3397 74.6898 50.3858 71.4453 50.3838L65.546 50.3804L62.8106 47.9538ZM8.0586 21.2713C6.20634 19.6126 3.63785 17.3215 2.35083 16.1802C1.06381 15.0388 0.0059397 14.045 9.2274e-06 13.9718C-0.00589174 13.8987 2.81925 13.8388 6.27816 13.8388H12.5671L15.0605 15.9908C16.4318 17.1744 17.5538 18.1934 17.5538 18.2551C17.5538 18.3698 12.4325 23.4644 11.7844 23.9944C11.4392 24.2767 11.3056 24.1791 8.0586 21.2713ZM16.7626 15.4774L14.9956 13.9275L16.4641 13.8758L17.9326 13.8241L18.9845 14.6742C19.563 15.1418 20.0367 15.6085 20.0371 15.7113C20.0379 15.9425 18.9306 17.0333 18.6986 17.0299C18.6057 17.0286 17.7345 16.3299 16.7626 15.4774Z" fill="#0B0B0B"/>
<path d="M78.72 11.6998H88.2581C89.8478 11.6998 90.9984 12.0632 91.71 12.7899C92.4367 13.5015 92.8001 14.6521 92.8001 16.2418V18.5128C92.8001 20.1024 92.4367 21.2606 91.71 21.9874C90.9984 22.6989 89.8478 23.0547 88.2581 23.0547H82.8078V27.5967H78.72V11.6998ZM88.7123 16.2418C88.7123 15.3334 88.2581 14.8792 87.3497 14.8792H82.8078V19.8753H87.3497C88.2581 19.8753 88.7123 19.4212 88.7123 18.5128V16.2418ZM99.385 24.6444C100.187 24.6444 101.096 24.493 102.11 24.1902V22.8276H98.8173C98.5902 22.8276 98.4009 22.9033 98.2495 23.0547C98.0981 23.2061 98.0224 23.3954 98.0224 23.6225V23.8496C98.0224 24.0767 98.0981 24.2659 98.2495 24.4173C98.4009 24.5687 98.5902 24.6444 98.8173 24.6444H99.385ZM95.1837 15.7876C97.9543 15.4848 100.452 15.3334 102.678 15.3334C103.707 15.3334 104.533 15.6438 105.153 16.2645C105.774 16.8852 106.084 17.7103 106.084 18.7399V27.5967H102.564L102.337 26.4612C101.626 26.9305 100.891 27.2787 100.134 27.5058C99.3926 27.7178 98.7643 27.8238 98.2495 27.8238H97.4547C96.4252 27.8238 95.6001 27.5134 94.9793 26.8927C94.3586 26.2719 94.0482 25.4468 94.0482 24.4173V23.3954C94.0482 22.3659 94.3586 21.5407 94.9793 20.92C95.6001 20.2993 96.4252 19.9889 97.4547 19.9889H102.11V19.0805C102.11 18.8534 102.035 18.6642 101.883 18.5128C101.732 18.3614 101.542 18.2857 101.315 18.2857C100.331 18.2857 99.2412 18.3311 98.0452 18.4219C96.8642 18.5128 95.9104 18.5809 95.1837 18.6263V15.7876ZM118.796 27.3696C115.965 27.6724 113.466 27.8238 111.301 27.8238C110.272 27.8238 109.447 27.5134 108.826 26.8927C108.205 26.2719 107.895 25.4468 107.895 24.4173V19.1941C107.895 18.0586 108.213 17.1729 108.849 16.537C109.5 15.886 110.393 15.5605 111.529 15.5605H118.796V18.6263H112.778C112.172 18.6263 111.869 18.9291 111.869 19.5347V23.9631C111.869 24.1902 111.945 24.3795 112.096 24.5309C112.248 24.6823 112.437 24.758 112.664 24.758C114.027 24.758 116.071 24.6444 118.796 24.4173V27.3696ZM125.264 18.1721C124.658 18.1721 124.355 18.4749 124.355 19.0805V20.3295H128.216V19.0805C128.216 18.4749 127.913 18.1721 127.307 18.1721H125.264ZM131.736 27.3696C128.814 27.6724 126.164 27.8238 123.787 27.8238C122.758 27.8238 121.933 27.5134 121.312 26.8927C120.691 26.2719 120.381 25.4468 120.381 24.4173V18.967C120.381 17.8315 120.699 16.9458 121.335 16.3099C121.986 15.6589 122.879 15.3334 124.015 15.3334H128.556C129.692 15.3334 130.578 15.6589 131.214 16.3099C131.865 16.9458 132.19 17.8315 132.19 18.967V23.1683H124.355V24.0767C124.355 24.3038 124.431 24.493 124.582 24.6444C124.734 24.7958 124.923 24.8715 125.15 24.8715C126.649 24.8715 128.844 24.758 131.736 24.5309V27.3696ZM138.54 24.4173H146.829V27.5967H134.452V11.6998H138.54V24.4173ZM153.193 16.0147V27.5967H149.219V19.0805H147.516V16.0147H153.193ZM149.219 11.4727H153.193V14.6521H149.219V11.4727ZM162.171 18.6263C161.368 18.6263 160.46 18.7777 159.445 19.0805V27.5967H155.471V15.5605H158.991L159.218 16.696C159.93 16.2266 160.657 15.886 161.398 15.674C162.155 15.4469 162.791 15.3334 163.306 15.3334H164.328C165.357 15.3334 166.183 15.6438 166.803 16.2645C167.424 16.8852 167.734 17.7103 167.734 18.7399V27.5967H163.76V19.4212C163.76 19.1941 163.685 19.0048 163.533 18.8534C163.382 18.702 163.192 18.6263 162.965 18.6263H162.171ZM173.75 22.8276V27.5967H169.776V11.6998H173.75V19.7618H175.567L178.065 15.5605H182.266L178.86 21.3515L182.266 27.5967H178.065L175.453 22.8276H173.75ZM82.8078 45.5967H78.72V29.6998H91.3239V32.8792H82.8078V36.6263H89.5072V39.8057H82.8078V45.5967ZM98.7037 36.8534C97.7499 36.8534 96.7658 37.0805 95.7515 37.5347V45.5967H91.7773V33.5605H95.2973L95.5244 35.0366C96.8264 33.9011 98.189 33.3334 99.6121 33.3334H100.634V36.8534H98.7037ZM106.435 36.1721C105.829 36.1721 105.526 36.4749 105.526 37.0805V38.3295H109.387V37.0805C109.387 36.4749 109.084 36.1721 108.479 36.1721H106.435ZM112.907 45.3696C109.985 45.6724 107.336 45.8238 104.959 45.8238C103.929 45.8238 103.104 45.5134 102.483 44.8927C101.863 44.2719 101.552 43.4468 101.552 42.4173V36.967C101.552 35.8315 101.87 34.9458 102.506 34.3099C103.157 33.6589 104.05 33.3334 105.186 33.3334H109.728C110.863 33.3334 111.749 33.6589 112.385 34.3099C113.036 34.9458 113.361 35.8315 113.361 36.967V41.1683H105.526V42.0767C105.526 42.3038 105.602 42.493 105.754 42.6444C105.905 42.7958 106.094 42.8715 106.321 42.8715C107.82 42.8715 110.015 42.758 112.907 42.5309V45.3696ZM120.392 34.0147V45.5967H116.418V37.0805H114.715V34.0147H120.392ZM116.418 29.4727H120.392V32.6521H116.418V29.4727ZM130.505 44.6883C129.037 44.9911 127.75 45.1425 126.645 45.1425H125.85C124.82 45.1425 123.995 44.8321 123.375 44.2114C122.754 43.5906 122.443 42.7655 122.443 41.736V37.1941C122.443 36.0586 122.761 35.1729 123.397 34.537C124.048 33.886 124.942 33.5605 126.077 33.5605H134.48V46.278C134.48 47.3075 134.169 48.1326 133.549 48.7533C132.928 49.3741 132.103 49.6844 131.073 49.6844C128.696 49.6844 126.047 49.533 123.125 49.2302V46.278C126.016 46.5051 128.212 46.6186 129.711 46.6186C129.938 46.6186 130.127 46.5429 130.278 46.3915C130.43 46.2401 130.505 46.0509 130.505 45.8238V44.6883ZM127.78 42.0767C128.734 42.0767 129.642 42.001 130.505 41.8496V36.6263H127.326C126.72 36.6263 126.418 36.9291 126.418 37.5347V41.2818C126.418 41.5089 126.493 41.6982 126.645 41.8496C126.796 42.001 126.985 42.0767 127.213 42.0767H127.78ZM140.728 33.7876C142.196 33.4848 143.483 33.3334 144.588 33.3334H145.61C146.64 33.3334 147.465 33.6438 148.085 34.2645C148.706 34.8852 149.017 35.7103 149.017 36.7399V45.5967H145.042V37.1941C145.042 36.967 144.967 36.7777 144.815 36.6263C144.664 36.4749 144.475 36.3992 144.248 36.3992H143.453C142.877 36.3992 142.347 36.4295 141.863 36.4901C141.394 36.5506 141.015 36.596 140.728 36.6263V45.5967H136.753V29.6998H140.728V33.7876ZM159.46 45.5967C157.992 45.7481 156.554 45.8238 155.146 45.8238C154.116 45.8238 153.291 45.5134 152.67 44.8927C152.049 44.2719 151.739 43.4468 151.739 42.4173V36.6263H150.377V33.5605H151.739L152.193 30.8353H155.713V33.5605H158.552V36.6263H155.713V41.8496C155.713 42.0767 155.789 42.2659 155.94 42.4173C156.092 42.5687 156.281 42.6444 156.508 42.6444H159.46V45.5967Z" fill="#0B0B0B"/>
</svg>
